# xmcd
#
# Track frame offsets:
#	150
#	11705
#	27725
#	39909
#	52530
#	62092
#	71180
#	82212
#	90589
#	101531
#	114271
#	130240
#	141133
#
# Disc length: 2185 seconds
#
# Revision: 1
# Processed by: cddbd v1.5.2PL0 Copyright (c) Steve Scherf et al.
# Submitted via: EasyCDDAExtractor 12.0.1.1
#
DISCID=ac08870d
DTITLE=Various Artist - Norwegian Country Fest - CD3
DYEAR=1993
DGENRE=Country
TTITLE0=Ottar 'Big Hand' Johansen - Vær på vei
TTITLE1=Lillian Askeland - Hold meg
TTITLE2=Bjøro Håland - Å, for en dag
TTITLE3=Lillian Askeland - Jeg en vandrer
TTITLE4=Ottar 'Big Hand' Johansen - På loffen nok en gang
TTITLE5=Country Snakes - Landhandler Rag (instr.)
TTITLE6=Bjøro Håland and Lillian Askeland - Sammen igjen
TTITLE7=Ottar 'Big Hand' Johansen - Vi har alt
TTITLE8=Lillian Askeland - Skylden må vi dele begge to
TTITLE9=Bjøro Håland - Mest av alt
TTITLE10=Lillian Askeland and Ottar 'Big Hand' Johansen - Den gang du var min
TTITLE11=Vidar Lonn Arnesen - Nr. 44
TTITLE12=Various Artist - Medley
EXTD=
EXTT0=
EXTT1=
EXTT2=
EXTT3=
EXTT4=
EXTT5=
EXTT6=
EXTT7=
EXTT8=
EXTT9=
EXTT10=
EXTT11=
EXTT12=
PLAYORDER=
